<svg width="46" height="46" viewBox="0 0 46 46" fill="none" xmlns="http://www.w3.org/2000/svg">
<rect x="0.5" y="0.5" width="45" height="45" rx="22.5" stroke="#E9E9E9"/>
<path d="M15.1082 25.3079C14.931 26.4695 15.7233 27.2759 16.6933 27.6777C20.4123 29.2183 25.5876 29.2183 29.3065 27.6777C30.2766 27.2759 31.0689 26.4695 30.8916 25.3079C30.7827 24.5939 30.2442 23.9994 29.8452 23.4189C29.3227 22.6492 29.2707 21.8097 29.2706 20.9165C29.2706 17.4647 26.4631 14.6665 22.9999 14.6665C19.5367 14.6665 16.7292 17.4647 16.7292 20.9165C16.7291 21.8097 16.6772 22.6492 16.1546 23.4189C15.7556 23.9994 15.2171 24.5939 15.1082 25.3079Z" stroke="#677487" stroke-width="1.5" stroke-linecap="round" stroke-linejoin="round"/>
<path d="M19.6665 28.833C20.0486 30.2707 21.3961 31.333 22.9998 31.333C24.6036 31.333 25.9511 30.2707 26.3332 28.833" stroke="#677487" stroke-width="1.5" stroke-linecap="round" stroke-linejoin="round"/>
</svg>
