<svg width="46" height="46" viewBox="0 0 46 46" fill="none" xmlns="http://www.w3.org/2000/svg">
<rect x="0.5" y="0.5" width="45" height="45" rx="22.5" stroke="#E9E9E9"/>
<path d="M30.7645 18.9513L30.3532 18.2375C30.0421 17.6976 29.8865 17.4277 29.6219 17.3201C29.3573 17.2124 29.0579 17.2974 28.4593 17.4672L27.4425 17.7536C27.0603 17.8418 26.6593 17.7918 26.3104 17.6125L26.0297 17.4505C25.7304 17.2589 25.5003 16.9763 25.3729 16.6441L25.0946 15.813C24.9116 15.2629 24.8201 14.9879 24.6023 14.8306C24.3845 14.6733 24.0951 14.6733 23.5165 14.6733H22.5875C22.0089 14.6733 21.7196 14.6733 21.5018 14.8306C21.284 14.9879 21.1925 15.2629 21.0095 15.813L20.7312 16.6441C20.6038 16.9763 20.3736 17.2589 20.0744 17.4505L19.7937 17.6125C19.4447 17.7918 19.0437 17.8418 18.6616 17.7536L17.6447 17.4672C17.0461 17.2974 16.7468 17.2124 16.4821 17.3201C16.2175 17.4277 16.062 17.6976 15.7509 18.2375L15.3396 18.9513C15.048 19.4574 14.9022 19.7104 14.9305 19.9797C14.9588 20.2491 15.1539 20.4661 15.5443 20.9003L16.4035 21.8608C16.6135 22.1267 16.7626 22.59 16.7626 23.0065C16.7626 23.4233 16.6136 23.8865 16.4035 24.1524L15.5443 25.113C15.1539 25.5471 14.9588 25.7642 14.9305 26.0335C14.9022 26.3029 15.048 26.5559 15.3396 27.062L15.7509 27.7758C16.0619 28.3156 16.2175 28.5856 16.4821 28.6932C16.7468 28.8008 17.0461 28.7159 17.6447 28.546L18.6615 28.2596C19.0438 28.1714 19.4448 28.2215 19.7938 28.4008L20.0745 28.5628C20.3737 28.7545 20.6038 29.037 20.7312 29.3691L21.0095 30.2004C21.1925 30.7504 21.284 31.0254 21.5018 31.1827C21.7196 31.34 22.0089 31.34 22.5875 31.34H23.5165C24.0951 31.34 24.3845 31.34 24.6023 31.1827C24.8201 31.0254 24.9116 30.7504 25.0946 30.2004L25.3729 29.3691C25.5003 29.037 25.7304 28.7545 26.0295 28.5628L26.3102 28.4008C26.6592 28.2215 27.0603 28.1714 27.4425 28.2596L28.4593 28.546C29.0579 28.7159 29.3572 28.8008 29.6219 28.6932C29.8865 28.5856 30.0421 28.3156 30.3532 27.7758L30.3532 27.7758L30.7645 27.062C31.0561 26.5559 31.2019 26.3029 31.1736 26.0335C31.1453 25.7642 30.9501 25.5471 30.5597 25.113L29.7005 24.1524C29.4905 23.8865 29.3415 23.4233 29.3415 23.0065C29.3415 22.59 29.4905 22.1267 29.7005 21.8608L30.5597 20.9003C30.9501 20.4661 31.1453 20.2491 31.1736 19.9797C31.2019 19.7104 31.0561 19.4574 30.7645 18.9513Z" stroke="#677487" stroke-width="1.5" stroke-linecap="round"/>
<path d="M25.9329 23.0002C25.9329 24.611 24.6271 25.9168 23.0163 25.9168C21.4054 25.9168 20.0996 24.611 20.0996 23.0002C20.0996 21.3893 21.4054 20.0835 23.0163 20.0835C24.6271 20.0835 25.9329 21.3893 25.9329 23.0002Z" stroke="#677487" stroke-width="1.5"/>
</svg>
